<svg width="405" height="135" viewBox="0 0 405 135" fill="none" xmlns="http://www.w3.org/2000/svg">
<rect x="83" width="15" height="15" fill="white"/>
<rect y="75" width="15" height="15" fill="white"/>
<rect x="83" y="15" width="15" height="15" fill="white"/>
<rect y="90" width="15" height="15" fill="white"/>
<rect x="98" width="15" height="15" fill="white"/>
<rect x="15" y="75" width="15" height="15" fill="white"/>
<rect x="143" width="15" height="15" fill="white"/>
<rect x="173" width="15" height="15" fill="white"/>
<rect x="188" y="15" width="15" height="15" fill="white"/>
<rect x="203" y="30" width="15" height="15" fill="white"/>
<rect x="203" y="45" width="15" height="15" fill="white"/>
<rect x="173" y="45" width="15" height="15" fill="white"/>
<rect x="173" y="30" width="15" height="15" fill="white"/>
<rect x="203" width="15" height="15" fill="white"/>
<rect x="248" width="15" height="15" fill="white"/>
<rect x="75" y="75" width="15" height="15" fill="white"/>
<rect x="255" y="75" width="15" height="15" fill="white"/>
<rect x="315" y="75" width="15" height="15" fill="white"/>
<rect x="375" y="75" width="15" height="15" fill="white"/>
<rect x="135" y="75" width="15" height="15" fill="white"/>
<rect x="195" y="75" width="15" height="15" fill="white"/>
<rect x="233" y="15" width="15" height="15" fill="white"/>
<rect x="60" y="90" width="15" height="15" fill="white"/>
<rect x="240" y="90" width="15" height="15" fill="white"/>
<rect x="300" y="90" width="15" height="15" fill="white"/>
<rect x="375" y="90" width="15" height="15" fill="white"/>
<rect x="120" y="90" width="15" height="15" fill="white"/>
<rect x="180" y="90" width="15" height="15" fill="white"/>
<rect x="233" y="30" width="15" height="15" fill="white"/>
<rect x="60" y="105" width="15" height="15" fill="white"/>
<rect x="240" y="105" width="15" height="15" fill="white"/>
<rect x="300" y="105" width="15" height="15" fill="white"/>
<rect x="375" y="105" width="15" height="15" fill="white"/>
<rect x="375" y="120" width="15" height="15" fill="white"/>
<rect x="120" y="105" width="15" height="15" fill="white"/>
<rect x="180" y="105" width="15" height="15" fill="white"/>
<rect x="263" y="15" width="15" height="15" fill="white"/>
<rect x="90" y="90" width="15" height="15" fill="white"/>
<rect x="270" y="90" width="15" height="15" fill="white"/>
<rect x="330" y="75" width="15" height="15" fill="white"/>
<rect x="390" y="75" width="15" height="15" fill="white"/>
<rect x="360" y="75" width="15" height="15" fill="white"/>
<rect x="150" y="90" width="15" height="15" fill="white"/>
<rect x="210" y="75" width="15" height="15" fill="white"/>
<rect x="248" y="45" width="15" height="15" fill="white"/>
<rect x="75" y="120" width="15" height="15" fill="white"/>
<rect x="255" y="120" width="15" height="15" fill="white"/>
<rect x="315" y="120" width="15" height="15" fill="white"/>
<rect x="120" y="120" width="15" height="15" fill="white"/>
<rect x="180" y="120" width="15" height="15" fill="white"/>
<rect x="263" y="45" width="15" height="15" fill="white"/>
<rect x="90" y="120" width="15" height="15" fill="white"/>
<rect x="270" y="120" width="15" height="15" fill="white"/>
<rect x="330" y="120" width="15" height="15" fill="white"/>
<rect x="135" y="105" width="15" height="15" fill="white"/>
<rect x="195" y="105" width="15" height="15" fill="white"/>
<rect x="195" y="105" width="15" height="15" fill="white"/>
<rect x="150" y="120" width="15" height="15" fill="white"/>
<rect x="293" width="15" height="15" fill="white"/>
<rect x="293" y="15" width="15" height="15" fill="white"/>
<rect x="293" y="30" width="15" height="15" fill="white"/>
<rect x="308" y="45" width="15" height="15" fill="white"/>
<rect x="293" y="45" width="15" height="15" fill="white"/>
<rect x="233" width="15" height="15" fill="white"/>
<rect x="60" y="75" width="15" height="15" fill="white"/>
<rect x="240" y="75" width="15" height="15" fill="white"/>
<rect x="120" y="75" width="15" height="15" fill="white"/>
<rect x="143" y="30" width="15" height="15" fill="white"/>
<rect x="143" y="45" width="15" height="15" fill="white"/>
<rect x="98" y="30" width="15" height="15" fill="white"/>
<rect x="15" y="105" width="15" height="15" fill="white"/>
<rect x="113" y="15" width="15" height="15" fill="white"/>
<rect x="30" y="90" width="15" height="15" fill="white"/>
<rect x="83" y="30" width="15" height="15" fill="white"/>
<rect y="105" width="15" height="15" fill="white"/>
<rect x="83" y="45" width="15" height="15" fill="white"/>
<rect y="120" width="15" height="15" fill="white"/>
</svg>
